<mxfile host="app.diagrams.net" modified="2024-01-19T10:15:27.993Z" agent="Mozilla/5.0 (Windows NT 10.0; Win64; x64) AppleWebKit/537.36 (KHTML, like Gecko) Chrome/120.0.0.0 Safari/537.36" version="22.1.21" etag="MbZP14zEylHB5G5cb35a" type="device">
  <diagram id="qcMzDhtL537NaW5guGyd" name="Page-1">
    <mxGraphModel dx="880" dy="506" grid="1" gridSize="10" guides="1" tooltips="1" connect="1" arrows="1" fold="1" page="1" pageScale="1" pageWidth="850" pageHeight="1100" math="0" shadow="0">
      <root>
        <mxCell id="0" />
        <mxCell id="1" parent="0" />
        <mxCell id="IRfFIkY0QO7gv9jvoTVb-1" value="" style="rounded=0;whiteSpace=wrap;html=1;" vertex="1" parent="1">
          <mxGeometry width="840" height="80" as="geometry" />
        </mxCell>
        <mxCell id="IRfFIkY0QO7gv9jvoTVb-2" value="" style="endArrow=none;html=1;rounded=0;entryX=1;entryY=0;entryDx=0;entryDy=0;exitX=0;exitY=1;exitDx=0;exitDy=0;" edge="1" parent="1" source="IRfFIkY0QO7gv9jvoTVb-1" target="IRfFIkY0QO7gv9jvoTVb-1">
          <mxGeometry width="50" height="50" relative="1" as="geometry">
            <mxPoint x="400" y="160" as="sourcePoint" />
            <mxPoint x="450" y="110" as="targetPoint" />
            <Array as="points" />
          </mxGeometry>
        </mxCell>
        <mxCell id="IRfFIkY0QO7gv9jvoTVb-3" value="" style="endArrow=none;html=1;rounded=0;exitX=0;exitY=0;exitDx=0;exitDy=0;entryX=1;entryY=1;entryDx=0;entryDy=0;" edge="1" parent="1" source="IRfFIkY0QO7gv9jvoTVb-1" target="IRfFIkY0QO7gv9jvoTVb-1">
          <mxGeometry width="50" height="50" relative="1" as="geometry">
            <mxPoint x="90" y="90" as="sourcePoint" />
            <mxPoint x="520" y="190" as="targetPoint" />
            <Array as="points" />
          </mxGeometry>
        </mxCell>
        <mxCell id="IRfFIkY0QO7gv9jvoTVb-5" value="" style="rounded=0;whiteSpace=wrap;html=1;" vertex="1" parent="1">
          <mxGeometry y="80" width="840" height="40" as="geometry" />
        </mxCell>
        <mxCell id="IRfFIkY0QO7gv9jvoTVb-11" value="" style="endArrow=none;html=1;rounded=0;exitX=0.142;exitY=1.025;exitDx=0;exitDy=0;exitPerimeter=0;" edge="1" parent="1" source="IRfFIkY0QO7gv9jvoTVb-5">
          <mxGeometry width="50" height="50" relative="1" as="geometry">
            <mxPoint x="120" y="110" as="sourcePoint" />
            <mxPoint x="120" y="80" as="targetPoint" />
          </mxGeometry>
        </mxCell>
        <mxCell id="IRfFIkY0QO7gv9jvoTVb-13" value="" style="endArrow=none;html=1;rounded=0;exitX=0.142;exitY=1.025;exitDx=0;exitDy=0;exitPerimeter=0;" edge="1" parent="1">
          <mxGeometry width="50" height="50" relative="1" as="geometry">
            <mxPoint x="280" y="120" as="sourcePoint" />
            <mxPoint x="281" y="79" as="targetPoint" />
          </mxGeometry>
        </mxCell>
        <mxCell id="IRfFIkY0QO7gv9jvoTVb-14" value="" style="endArrow=none;html=1;rounded=0;exitX=0.142;exitY=1.025;exitDx=0;exitDy=0;exitPerimeter=0;" edge="1" parent="1">
          <mxGeometry width="50" height="50" relative="1" as="geometry">
            <mxPoint x="400" y="121" as="sourcePoint" />
            <mxPoint x="401" y="80" as="targetPoint" />
          </mxGeometry>
        </mxCell>
        <mxCell id="IRfFIkY0QO7gv9jvoTVb-15" value="" style="endArrow=none;html=1;rounded=0;exitX=0.142;exitY=1.025;exitDx=0;exitDy=0;exitPerimeter=0;" edge="1" parent="1">
          <mxGeometry width="50" height="50" relative="1" as="geometry">
            <mxPoint x="520" y="121" as="sourcePoint" />
            <mxPoint x="521" y="80" as="targetPoint" />
          </mxGeometry>
        </mxCell>
        <mxCell id="IRfFIkY0QO7gv9jvoTVb-16" value="" style="endArrow=none;html=1;rounded=0;exitX=0.142;exitY=1.025;exitDx=0;exitDy=0;exitPerimeter=0;" edge="1" parent="1">
          <mxGeometry width="50" height="50" relative="1" as="geometry">
            <mxPoint x="680" y="121" as="sourcePoint" />
            <mxPoint x="681" y="80" as="targetPoint" />
          </mxGeometry>
        </mxCell>
        <mxCell id="IRfFIkY0QO7gv9jvoTVb-17" value="" style="rounded=0;whiteSpace=wrap;html=1;" vertex="1" parent="1">
          <mxGeometry y="160" width="840" height="110" as="geometry" />
        </mxCell>
        <mxCell id="IRfFIkY0QO7gv9jvoTVb-18" value="" style="endArrow=none;html=1;rounded=0;entryX=1;entryY=0;entryDx=0;entryDy=0;exitX=0;exitY=1;exitDx=0;exitDy=0;" edge="1" parent="1" target="IRfFIkY0QO7gv9jvoTVb-17">
          <mxGeometry width="50" height="50" relative="1" as="geometry">
            <mxPoint y="270" as="sourcePoint" />
            <mxPoint x="840" y="190" as="targetPoint" />
            <Array as="points" />
          </mxGeometry>
        </mxCell>
        <mxCell id="IRfFIkY0QO7gv9jvoTVb-19" value="" style="endArrow=none;html=1;rounded=0;entryX=1;entryY=1;entryDx=0;entryDy=0;exitX=0;exitY=0;exitDx=0;exitDy=0;" edge="1" parent="1" source="IRfFIkY0QO7gv9jvoTVb-17" target="IRfFIkY0QO7gv9jvoTVb-17">
          <mxGeometry width="50" height="50" relative="1" as="geometry">
            <mxPoint x="20" y="100" as="sourcePoint" />
            <mxPoint x="860" y="20" as="targetPoint" />
            <Array as="points" />
          </mxGeometry>
        </mxCell>
        <mxCell id="IRfFIkY0QO7gv9jvoTVb-20" value="" style="rounded=0;whiteSpace=wrap;html=1;" vertex="1" parent="1">
          <mxGeometry y="320" width="840" height="320" as="geometry" />
        </mxCell>
      </root>
    </mxGraphModel>
  </diagram>
</mxfile>
